<?xml version="1.0" encoding="UTF-8"?> <svg xmlns="http://www.w3.org/2000/svg" id="Livello_2" viewBox="0 0 596.01 345.71"><g id="Livello_1-2"><path d="m0,278.24V70.52c1.8-.47,46.4-.66,51.02-.2,11.15,44.39,22.33,88.88,33.5,133.37.15,0,.3.01.46.02,11.18-44.49,22.35-88.99,33.52-133.45h50.89v207.87c-2.06.31-38.62.37-41.64.06,0-20.39,0-40.82,0-61.25s0-40.91,0-61.86c-.84,2.09-.97,3.86-1.24,5.57-2.92,18.23-7.33,36.14-11.38,54.13-4.55,20.25-9.18,40.49-13.77,60.73-.19.86-.42,1.7-.66,2.72h-31.9c-.95-4.12-1.91-8.23-2.85-12.35-5.36-23.67-10.63-47.36-16.1-71-2.88-12.45-5.2-25.01-7.45-37.58-.17-.93-.27-1.85-.87-2.91.55,41.39.14,82.52.31,123.6-1.97.52-36.17.72-41.84.27Z" style="fill:#0d82c0; stroke-width:0px;"></path><path d="m182.65,70.15h23.12c.23-.21.29-.27.34-.32l.14-.19c.04-.23.09-.47.09-.71.02-22.86.04-45.72.07-68.58,0-.07.05-.15.08-.24.78-.17,1.1.52,1.55.89,11.77,9.98,23.51,19.98,35.28,29.95,2.56,2.17,2.35,2.77,5.49.08,10.98-9.42,22-18.79,33.03-28.16,1.21-1.03,2.52-1.94,3.75-2.88.15.06.23.07.3.11l.12.17c.06,23.1.12,46.19.18,69.29,0,.07.05.14.19.49h22.55c.46,1.23.3,2.27.3,3.28,0,43.4.01,86.81,0,130.21,0,3.2,0,6.4-.19,9.59-.6,10.48-2.06,20.82-5.77,30.72-4.53,12.12-12.01,21.75-23.72,27.73-5.89,3.01-12.17,4.83-18.69,5.76-11.64,1.67-23.27,1.46-34.81-.88-10.33-2.1-19.57-6.34-26.92-14.15-6.12-6.5-9.83-14.3-12.3-22.76-2.24-7.7-3.33-15.6-3.95-23.58-.52-6.71-.47-13.42-.47-20.13,0-40.85,0-81.69,0-122.54,0-.95-.14-1.91.24-3.16Zm43.09.16c-.52.93-.31,1.83-.31,2.68-.01,43.24-.02,86.47,0,129.71,0,6.15.15,12.3,1.15,18.4.64,3.88,1.53,7.67,3.38,11.18,2.16,4.11,5.45,6.82,9.97,7.99,3.21.83,6.48.95,9.75.56,6.38-.76,10.71-4.23,13.09-10.16.47-1.18.91-2.39,1.25-3.62,1.77-6.36,2.27-12.89,2.39-19.44.1-4.87.06-9.75.06-14.62,0-39.88,0-79.76,0-119.64,0-1,.22-2.05-.25-3.03h-40.48Z" style="fill:#0d82c0; stroke-width:0px;"></path><path d="m447.01,129.97c-14.94,2.31-29.99,4.63-45.05,6.96-.52-1.4-.28-2.69-.35-3.94-.26-4.62-.27-9.27-1.32-13.81-.47-2.03-1.17-3.98-2.12-5.84-2.78-5.42-7.26-8.37-13.27-8.99-2.8-.29-5.6-.12-8.33.58-5.39,1.37-8.98,4.68-10.56,10.06-1.17,3.99-1.32,8.05-.59,12.1.88,4.85,3.57,8.65,7.38,11.7,2.64,2.11,5.56,3.76,8.59,5.2,3.46,1.65,7.04,3.02,10.59,4.47,10.06,4.09,20.15,8.12,29.89,12.93,5.53,2.73,10.77,5.93,15.57,9.84,8.99,7.32,14.43,16.72,16.5,28.1,1.69,9.28,1.59,18.59.64,27.94-.51,5.02-1.44,9.95-2.91,14.78-4.68,15.4-14.7,25.68-29.78,31.12-7.57,2.73-15.42,4.08-23.41,4.74-8.14.67-16.28.69-24.43,0-8.8-.74-17.41-2.33-25.6-5.77-13.21-5.54-22.17-15.1-26.89-28.6-3.61-10.32-4.72-21-4.25-31.87.01-.23.11-.46.23-.97,16.34-2.31,32.76-4.64,49.32-6.98.47,1.29.18,2.55.11,3.77-.38,6.18.14,12.29,1.58,18.31.73,3.04,1.78,5.96,3.37,8.68,2.78,4.76,6.88,7.71,12.28,8.76,3.89.75,7.79.67,11.65-.31,5.33-1.36,9-4.63,11.08-9.71,1.01-2.47,1.59-5.05,1.78-7.67.43-6.08.23-12.13-1.26-18.09-1.43-5.76-4.6-10.29-9.5-13.64-3.65-2.49-7.63-4.34-11.69-6.04-10.02-4.19-20.14-8.13-29.91-12.89-7.27-3.54-14.37-7.34-20.66-12.5-8.28-6.8-13.14-15.5-14.7-26.08-1.4-9.43-1.2-18.79.95-28.09,3.69-15.96,13.34-26.74,28.51-32.68,7.04-2.76,14.4-4.15,21.9-4.88,5.82-.57,11.65-.67,17.48-.38,9.17.45,18.07,2.2,26.41,6.21,12.12,5.83,20.25,15.31,25.24,27.66,2.84,7.01,4.32,14.35,5.27,21.82.14,1.11.29,2.22.42,3.33.02.15-.07.31-.18.69Z" style="fill:#0d82c0; stroke-width:0px;"></path><path d="m498.59,70.23h47.87c16.38,69.28,32.76,138.55,49.19,208h-43.82c-2.63-12.56-5.28-25.18-7.94-37.9h-42.71c-2.65,12.65-5.29,25.27-7.95,37.93h-43.83c16.42-69.45,32.8-138.72,49.19-208.03Zm23.9,59.63c-4.11,25.53-8.85,50.9-13.3,76.44h27.67c-4.9-25.56-10.03-50.93-14.37-76.44Z" style="fill:#0d82c0; stroke-width:0px;"></path><path d="m195.92,345c-1.61.19-2.87.19-4.26.03v-34.42c1.86-.13,3.67-.14,5.62.03,3.27,9.03,6.55,18.06,9.82,27.1.19,0,.38,0,.57,0,3.47-8.94,6.51-18.05,9.94-27.06,1.77-.26,3.5-.21,5.38-.03v34.15c-.38.38-.79.34-1.18.33-.95-.04-1.91.16-3.08-.24v-24.05c-.19-.04-.38-.09-.56-.13-1.69,3.96-3.06,8.06-4.58,12.09-1.52,4.03-3.02,8.06-4.55,12.15-1.06.3-2.06.25-3.2.04-3.16-8.48-6.32-16.97-9.48-25.46-.14.03-.29.06-.44.09v25.39Z" style="fill:#0d82c0; stroke-width:0px;"></path><path d="m513.22,319.87v25.09c-1.56.23-2.88.28-4.31-.01v-34.04c.64-.63,1.4-.33,2.08-.38.71-.05,1.43-.01,2.24-.01,4.95,8.5,9.88,16.94,14.8,25.38.18-.05.35-.1.53-.14v-25c1.59-.39,2.91-.2,4.36-.18v34.4c-1.44.3-2.78.1-4.28.17-4.93-8.47-9.86-16.93-14.79-25.38-.21.04-.42.08-.63.12Z" style="fill:#0d82c0; stroke-width:0px;"></path><path d="m127.13,345.05v-34.21c.77-.5,1.51-.31,2.2-.31,3.43,0,6.87-.11,10.3.07,5.94.3,9.37,4.12,9.19,10.02-.08,2.62-1.09,4.79-3.16,6.44-.42.33-.99.5-1.25,1.21,3.68,1.81,4.34,5.15,4.34,8.85,0,2.61-.4,5.32,1.57,7.69-1.45.64-2.8.3-4.09.32-1.15.01-1.41-1.02-1.54-1.84-.25-1.57-.31-3.17-.41-4.76-.07-1.11.02-2.24-.1-3.35-.35-3.09-2.33-4.9-5.41-4.96-2.07-.05-4.15,0-6.23,0-.23,0-.46.07-.98.15-.21,2.39-.06,4.84-.09,7.27-.03,2.39,0,4.78,0,7.25-1.47.47-2.86.28-4.34.18Zm4.73-18.68c2.14,0,4.43.06,6.72-.01,4.76-.15,6.38-3.43,5.68-7.46-.46-2.62-1.85-4.14-4.31-4.45-2.74-.35-5.51-.25-8.48-.04,0,3.4,0,6.64,0,9.89,0,.62-.16,1.27.39,2.07Z" style="fill:#0d82c0; stroke-width:0px;"></path><path d="m85.01,327.79c-.02,2.47.11,4.94-.44,7.39-1.74,7.72-9.01,12.23-16.31,9.94-5.02-1.58-7.62-5.43-8.53-10.34-.85-4.57-.7-9.22-.04-13.83.32-2.24,1.27-4.27,2.62-6.1,4.51-6.14,13.69-6.6,18.83-.95,2.53,2.78,3.68,6.12,3.86,9.81.07,1.35.01,2.71.01,4.07Zm-21.13.05h.03c0,1.83-.07,3.67.02,5.5.09,1.78.74,3.43,1.72,4.92,2.87,4.37,8.88,4.77,12.33.81,1.29-1.48,2.08-3.22,2.35-5.16.57-4.05.53-8.11,0-12.16-.21-1.61-.84-3.08-1.77-4.4-3.45-4.93-10.33-4.57-13.27.68-.79,1.41-1.33,2.92-1.39,4.54-.07,1.75-.01,3.51-.01,5.26Z" style="fill:#0d82c0; stroke-width:0px;"></path><path d="m441.05,328.53c0-3.09-.05-5.48.44-7.85,1.45-6.97,6.6-11.05,13.47-10.62,5.52.34,10.25,4.62,11.38,10.63.89,4.73.97,9.58-.01,14.29-1.57,7.53-7.98,12.43-16.33,10.12-4.19-1.16-6.57-4.33-7.99-8.27-1.05-2.91-1-5.96-.95-8.3Zm4.4-.73c0,1.2-.06,2.4.01,3.59.14,2.33.53,4.6,1.79,6.63,2.97,4.79,9.55,5.07,12.91.54,1.11-1.5,1.79-3.19,2.01-5.06.43-3.74.43-7.48.01-11.23-.21-1.87-.89-3.55-1.98-5.07-3.3-4.58-9.91-4.38-12.9.39-.81,1.3-1.31,2.71-1.57,4.23-.33,1.98-.37,3.97-.29,5.97Z" style="fill:#0d82c0; stroke-width:0px;"></path><path d="m275.43,310.61h3.87c3.71,11.41,7.41,22.79,11.16,34.29-1.48.42-2.81.12-4.23.26-1.31-2.8-1.82-5.81-3.03-8.72h-11.79c-1.24,2.66-1.79,5.66-2.98,8.57-1.4.18-2.8.19-4.39-.06,3.82-11.52,7.62-22.94,11.4-34.35Zm6.52,21.52c-1.55-4.93-3-9.53-4.44-14.12-.14.02-.27.04-.41.06-1.47,4.64-2.95,9.27-4.47,14.06h9.32Z" style="fill:#0d82c0; stroke-width:0px;"></path><path d="m576.46,310.62h19.14c.39,1.16.26,2.24.08,3.61h-14.89v11.03c4.23.36,8.51-.07,12.81.25.37,1.16.27,2.24.07,3.55h-12.58c-.54,1.87-.63,9.15-.18,12.34h14.84c.37,1.32.25,2.35.16,3.56h-19.46v-34.34Z" style="fill:#0d82c0; stroke-width:0px;"></path><path d="m334.93,341.48h17.09c.3,1.24.22,2.27.09,3.64-7.47.03-14.94.02-22.49,0-.49-1.89-.27-3.46.75-5.07,4.86-7.7,9.64-15.46,14.45-23.2.45-.72.83-1.48,1.43-2.54h-16.27c-.49-1.3-.23-2.39-.26-3.63h21.52c.5,1.68.3,3.23-.71,4.85-4.9,7.77-9.71,15.6-14.54,23.42-.4.65-1.01,1.24-1.04,2.54Z" style="fill:#0d82c0; stroke-width:0px;"></path><path d="m0,310.52h19.71c.44,1.26.34,2.4.1,3.72H4.65c-.57,2-.24,3.91-.29,5.78-.06,1.9-.01,3.8-.01,5.99h13.22c.45,1.35.18,2.44.3,3.78H4.45v15.05c-1.58.51-2.97.32-4.45.21v-34.53Z" style="fill:#0d82c0; stroke-width:0px;"></path><path d="m394.37,310.64c1.39-.18,2.65-.17,3.9-.03.53,1.84.74,27.61.28,34.29-1.35.48-2.75.21-4.11.19-.38-1.98-.45-31.6-.08-34.45Z" style="fill:#0d82c0; stroke-width:0px;"></path></g></svg> 